# xmcd
# Copyright (C) 1995-1998 Ti Kan
#
# Track frame offsets:
#       150
#       22566
#       49869
#       70587
#       94046
#       110510
#       126071
#       127595
#       149688
#       164121
#       185005
#       186658
#       207705
#       228094
#
# Disc length: 3413 seconds
#
# Revision: 0
# Processed by: cddbd v1.5.2PL0 Copyright (c) Steve Scherf et al.
# Submitted via: CD-Transfer v1.0
#
DISCID=c80d530e
DTITLE=Wattstax - 
DYEAR=72
DGENRE=
TTITLE0=Staple Singers, The Oh La Di Da (Live)
TTITLE1=Staple Singers, The I Like The Things About Me (Live)
TTITLE2=Staple Singers, The Respect Yourself (Live)
TTITLE3=Staple Singers, The I'll Take You There (Live)
TTITLE4=Floyd, Eddie Knock On Wood (Live)
TTITLE5=Floyd, Eddie Lay Your Loving On Me (Live)
TTITLE6=Prior, Richard Introduction
TTITLE7=Thomas, Carla I Like What You're Doing To Me (Live)
TTITLE8=Thomas, Carla Gee Whiz (Live)
TTITLE9=Thomas, Carla I Have God Who Loves Me (Live)
TTITLE10=Prior, Richard Introduction
TTITLE11=Thomas, Rufus Breakdown (Live)
TTITLE12=Thomas, Rufus Do The Funky Chicken (Live)
TTITLE13=Thomas, Rufus Do The Funky Penguin (Live)
EXTD=
EXTT0=
EXTT1=
EXTT2=
EXTT3=
EXTT4=
EXTT5=
EXTT6=
EXTT7=
EXTT8=
EXTT9=
EXTT10=
EXTT11=
EXTT12=
EXTT13=
PLAYORDER=
